<?xml version="1.0" standalone="no"?>
<!DOCTYPE svg PUBLIC "-//W3C//DTD SVG 20010904//EN"
 "http://www.w3.org/TR/2001/REC-SVG-20010904/DTD/svg10.dtd">
<svg version="1.0" xmlns="http://www.w3.org/2000/svg"
 width="1280.000000pt" height="726.000000pt" viewBox="0 0 1280.000000 726.000000"
 preserveAspectRatio="xMidYMid meet">
<metadata>
Created by potrace 1.15, written by Peter Selinger 2001-2017
</metadata>
<g transform="translate(0.000000,726.000000) scale(0.100000,-0.100000)"
fill="#000000" stroke="none">
<path d="M2503 7249 c-32 -9 -33 -12 -33 -62 -1 -43 -6 -58 -30 -86 -26 -30
-32 -33 -64 -27 -30 6 -36 11 -36 31 0 14 -1 25 -3 25 -1 0 -18 -4 -37 -10
-34 -10 -36 -9 -107 62 -40 40 -74 70 -76 67 -2 -2 -22 -36 -45 -75 l-41 -72
20 -73 c16 -57 19 -89 14 -140 -5 -52 -4 -68 9 -78 14 -12 14 -17 1 -48 -18
-43 -20 -140 -3 -145 6 -2 -12 -26 -40 -52 -49 -46 -52 -52 -52 -98 0 -41 -7
-59 -42 -111 -36 -52 -43 -70 -44 -112 0 -30 -8 -61 -18 -78 -24 -36 -45 -96
-46 -129 0 -35 -34 -91 -65 -108 -20 -11 -22 -16 -14 -32 12 -22 13 -21 -25
-40 -25 -13 -32 -26 -47 -89 -9 -41 -14 -79 -9 -84 5 -6 2 -19 -6 -29 -18 -26
-18 -89 1 -126 14 -27 14 -30 -5 -40 -16 -9 -18 -15 -10 -36 18 -45 11 -64
-65 -191 -69 -115 -75 -128 -75 -179 0 -40 6 -63 19 -80 24 -31 35 -152 23
-249 -11 -82 3 -157 43 -232 16 -31 27 -72 31 -115 l6 -68 54 0 c41 0 54 4 54
15 0 8 5 15 10 15 16 0 12 -18 -10 -40 -11 -11 -20 -29 -20 -40 0 -11 -7 -20
-15 -20 -8 0 -25 -16 -39 -37 l-25 -36 29 -37 c30 -38 70 -121 70 -146 0 -7
-13 -28 -29 -46 l-28 -32 38 -90 c20 -50 59 -140 85 -201 53 -125 65 -202 41
-272 l-14 -41 44 -13 c27 -7 53 -23 65 -39 17 -24 25 -27 62 -23 52 6 89 -22
109 -82 14 -40 24 -47 88 -59 34 -7 67 -42 135 -141 43 -63 63 -84 84 -89 25
-5 30 -11 39 -58 5 -29 13 -78 16 -108 11 -88 24 -94 350 -156 69 -14 154 -10
187 7 15 8 17 3 20 -38 l3 -47 130 -94 c72 -51 217 -152 324 -224 l194 -131
341 -38 c410 -47 406 -46 406 -16 0 47 4 47 185 35 152 -10 175 -14 216 -37
53 -30 145 -126 154 -162 4 -14 32 -42 71 -69 52 -37 64 -50 64 -73 0 -16 18
-54 42 -89 26 -40 46 -82 53 -119 17 -81 82 -149 228 -243 56 -36 57 -36 89
-20 59 30 76 53 84 111 6 50 9 55 43 69 33 14 42 13 116 -5 44 -12 92 -21 106
-21 18 0 60 -28 133 -87 99 -81 106 -89 106 -123 0 -26 7 -43 25 -60 19 -18
25 -34 25 -67 0 -40 5 -49 74 -121 56 -58 77 -88 86 -122 7 -25 29 -79 50
-120 21 -41 48 -98 59 -126 35 -92 178 -202 262 -204 23 0 183 -37 240 -55 16
-5 17 -3 10 22 -5 15 -12 65 -15 111 -3 45 -12 94 -20 109 -12 24 -12 31 1 59
11 21 13 44 9 68 -6 34 -9 36 -44 36 l-37 1 25 19 c14 11 31 25 37 30 7 6 16
28 19 50 5 28 12 41 28 46 33 10 56 35 56 60 0 24 3 25 110 51 44 11 52 44 18
80 l-23 26 64 -7 c62 -6 65 -5 163 46 102 53 154 99 186 165 12 26 13 38 4 57
-8 17 -8 27 -1 32 6 3 11 4 12 3 16 -32 26 -43 48 -56 24 -15 28 -14 65 10 21
14 54 28 73 32 19 4 53 15 75 25 40 17 42 17 90 -7 66 -33 163 -46 251 -34
134 19 148 19 155 -8 3 -16 18 -28 45 -39 22 -8 66 -33 97 -54 31 -21 59 -38
61 -38 3 0 10 13 17 30 11 26 18 30 50 30 20 0 51 7 68 15 28 14 36 14 89 -1
42 -12 66 -26 86 -50 28 -33 29 -34 52 -16 21 15 45 59 45 83 0 5 -6 9 -14 9
-8 0 -36 18 -61 40 -25 22 -51 40 -56 40 -16 0 21 49 42 55 15 5 19 16 19 51
0 24 -5 44 -11 44 -19 0 -54 -22 -77 -48 l-23 -27 11 30 c9 25 8 32 -7 43 -16
12 -12 13 32 7 l50 -7 -30 32 c-35 37 -32 40 68 71 58 17 80 19 158 12 98 -10
91 -13 101 52 5 33 23 18 26 -21 3 -36 3 -36 42 -30 35 5 39 4 42 -16 2 -19
10 -24 44 -26 32 -2 54 4 93 27 63 38 104 39 162 6 114 -65 153 -78 264 -91
l110 -12 46 49 46 50 94 -41 c122 -54 336 -187 343 -214 3 -12 6 -90 6 -173 0
-84 4 -153 8 -153 5 0 17 16 28 35 10 19 23 35 28 35 9 0 3 -60 -12 -123 -10
-37 -9 -38 51 -97 53 -53 64 -60 89 -55 26 6 28 4 28 -25 0 -18 9 -43 20 -57
11 -14 20 -40 20 -57 0 -27 7 -35 48 -58 40 -23 100 -80 206 -200 35 -40 85
-38 147 4 30 21 49 42 52 58 3 14 14 63 26 109 19 72 21 98 15 189 l-7 106
-75 109 c-41 60 -89 143 -107 185 -18 42 -62 125 -98 184 -36 58 -78 134 -92
169 -15 35 -44 94 -65 131 -22 37 -46 94 -56 125 -9 32 -22 73 -30 91 -20 46
-9 188 16 205 16 11 40 48 40 61 0 3 -8 6 -17 6 -9 0 11 21 45 46 36 27 68 44
77 40 10 -3 15 1 15 13 0 11 -3 21 -7 23 -5 2 -18 22 -29 45 l-22 42 42 8 c34
7 42 13 44 34 2 20 13 28 51 42 42 15 50 22 65 61 14 36 24 47 52 56 28 10 34
16 34 40 0 15 9 52 21 82 17 46 28 58 84 95 36 23 78 44 95 48 27 6 30 10 30
45 0 49 32 123 75 176 29 35 42 43 82 49 58 8 98 26 138 59 29 25 30 26 13 53
-14 23 -23 27 -50 25 -26 -2 -30 0 -20 10 6 6 12 23 12 36 0 20 4 24 24 20 20
-4 30 5 66 58 35 51 46 62 60 54 15 -8 16 -17 5 -89 -6 -45 -10 -81 -9 -81 1
0 19 26 38 57 50 79 48 108 -11 188 -42 57 -52 65 -75 62 -25 -3 -27 -2 -13
13 24 27 19 93 -11 138 -22 33 -37 43 -90 61 -36 12 -72 21 -82 21 -10 0 -26
6 -37 13 -17 13 -16 14 11 20 16 4 38 14 49 23 20 15 19 17 -27 59 -27 24 -48
47 -48 51 0 4 9 -1 21 -12 15 -13 24 -16 36 -8 26 16 25 28 -2 69 -15 20 -20
35 -13 32 48 -19 49 -15 6 27 l-48 47 27 10 c24 9 31 5 70 -33 l43 -42 -5 -66
c-3 -36 -8 -90 -11 -120 l-5 -55 35 34 c39 38 72 112 80 183 3 27 17 70 31 98
14 27 25 60 25 72 0 13 17 40 40 63 21 22 39 43 40 46 0 3 -22 4 -49 1 -40 -3
-55 0 -89 23 -33 22 -62 69 -50 80 2 2 24 0 51 -4 l47 -8 45 66 c57 84 85 166
85 247 0 59 -2 64 -30 81 -25 14 -30 23 -25 41 10 40 45 127 58 142 13 17 104
92 126 105 24 14 134 34 188 35 61 0 76 16 88 87 l7 43 36 -15 c33 -14 37 -14
57 5 12 11 34 20 50 20 16 0 49 7 72 16 37 14 43 21 43 46 0 33 -45 98 -67 98
-11 0 -13 -5 -8 -17 4 -10 10 -28 12 -40 4 -19 1 -23 -20 -23 -59 0 -157 170
-157 272 0 134 31 197 170 349 75 82 81 92 78 127 -3 36 -2 37 26 34 16 -2 32
2 37 10 7 11 9 11 9 0 0 -8 29 11 64 42 54 48 69 56 103 56 29 0 46 6 62 24
22 23 22 25 6 49 -9 14 -27 28 -40 31 -25 6 -105 97 -105 119 -1 32 -17 39
-50 22 -49 -25 -59 -9 -70 121 -13 142 -41 241 -86 305 -34 46 -39 50 -68 44
-17 -4 -50 -20 -74 -36 l-43 -29 -39 31 -40 32 -40 -18 -41 -19 2 -93 c2 -94
2 -94 -31 -128 l-32 -33 9 -94 c10 -99 0 -193 -32 -295 -15 -52 -16 -52 -76
-69 -33 -9 -58 -20 -57 -23 36 -69 41 -82 32 -90 -12 -10 -357 -71 -405 -71
-59 0 -190 -30 -241 -56 -36 -19 -61 -44 -113 -116 l-67 -93 5 -90 c3 -49 8
-97 11 -106 5 -12 0 -18 -21 -23 -15 -4 -41 -20 -58 -36 -37 -35 -78 -47 -180
-55 -44 -3 -122 -16 -172 -28 l-93 -21 0 -54 c0 -39 6 -62 21 -83 l21 -30 -58
-62 c-62 -65 -145 -133 -180 -147 -11 -4 -33 -19 -50 -32 -30 -25 -261 -176
-302 -197 -19 -10 -27 -10 -39 1 -11 8 -46 13 -102 13 -100 0 -108 9 -67 72
13 21 28 56 32 78 3 22 17 51 29 65 13 14 26 41 30 60 4 21 23 52 48 77 l40
42 -46 93 c-25 51 -48 107 -52 125 -10 48 -28 59 -80 45 -77 -21 -111 -47
-124 -98 -6 -25 -16 -42 -21 -39 -18 11 -10 53 24 132 l35 79 -9 94 c-5 52
-10 104 -10 116 0 16 -17 27 -79 52 -43 18 -86 41 -96 52 -10 11 -30 20 -44
20 -47 0 -56 15 -25 39 18 14 41 21 71 21 42 0 123 33 123 50 0 8 -75 20 -119
20 -15 0 -43 14 -65 32 -24 20 -55 34 -80 38 -33 4 -42 9 -44 28 -2 15 -16 29
-37 39 -47 22 -141 6 -239 -41 -64 -31 -85 -36 -145 -36 -67 0 -72 2 -93 30
-20 28 -26 30 -84 30 -40 0 -64 4 -67 13 -7 20 9 52 37 70 21 14 26 25 26 57
0 22 -2 40 -5 40 -26 0 -117 -64 -194 -135 -104 -97 -160 -127 -234 -127 -50
0 -55 3 -83 49 -9 14 -14 15 -25 7 -16 -13 -145 -44 -184 -44 l-26 0 18 30
c18 32 178 151 323 241 47 29 87 54 90 56 18 15 -50 22 -209 22 -170 1 -187 2
-201 20 -8 10 -40 27 -70 36 -76 24 -75 24 -44 56 l28 29 -122 0 -122 0 6 -26
c7 -26 6 -27 -32 -20 -21 4 -62 18 -91 31 -55 25 -80 59 -102 143 -10 35 -16
42 -36 42 -21 0 -24 -5 -27 -42 l-3 -43 -160 -8 c-288 -15 -1136 26 -1715 83
-705 69 -908 96 -1195 159 -99 21 -241 49 -315 61 -271 45 -851 184 -1085 260
-115 38 -379 111 -393 109 -4 0 -22 -5 -39 -10z m163 -50 c65 -16 173 -48 239
-69 66 -22 214 -64 328 -94 115 -30 210 -56 212 -58 2 -2 0 -22 -5 -43 -5 -22
-34 -155 -64 -295 -31 -140 -63 -284 -73 -320 l-18 -65 -45 3 c-25 2 -76 10
-115 19 -69 15 -273 27 -411 24 -41 -1 -88 5 -114 14 -24 8 -51 13 -61 10 -10
-3 -31 1 -48 9 -23 12 -49 14 -123 10 l-93 -6 -19 35 c-17 32 -17 43 -7 96 15
77 6 94 -61 116 -97 32 -118 76 -83 175 14 39 14 45 -1 61 -12 14 -14 30 -9
81 4 48 1 79 -14 131 l-20 68 30 50 c17 27 34 49 38 49 3 0 33 -27 66 -60 51
-51 64 -60 86 -55 20 5 28 2 31 -13 4 -13 18 -21 47 -26 23 -3 44 -13 48 -22
3 -9 -13 -38 -41 -74 -47 -60 -53 -78 -48 -162 l2 -37 43 15 c25 8 49 25 59
42 10 15 26 38 37 52 13 16 22 48 26 92 7 64 6 66 -16 70 -34 4 -34 29 1 73
23 29 30 48 30 81 0 64 6 65 166 23z m-212 -261 c-5 -47 -13 -62 -52 -104
l-46 -49 -10 34 c-7 26 -6 40 8 65 20 38 94 121 101 114 3 -3 3 -30 -1 -60z
m1109 16 l38 -6 -6 -52 c-3 -28 -7 -122 -8 -208 l-2 -157 37 -38 c39 -41 78
-108 78 -134 0 -23 38 -69 66 -79 30 -12 30 -29 -1 -90 -27 -54 -45 -153 -37
-212 5 -42 8 -44 37 -24 11 7 32 16 46 19 24 6 27 4 33 -27 4 -19 4 -46 0 -60
-5 -20 1 -34 25 -61 17 -20 31 -44 31 -55 0 -10 12 -32 26 -49 21 -25 25 -39
22 -73 l-3 -43 70 -8 c52 -7 85 -5 135 7 77 19 110 20 144 4 19 -8 24 -17 21
-32 -2 -12 -27 -160 -55 -331 -28 -170 -53 -311 -54 -313 -10 -9 -603 109
-850 170 l-288 70 5 37 c4 20 15 72 25 116 11 44 43 179 72 300 29 121 79 333
112 470 87 365 102 430 148 645 53 249 48 233 73 227 12 -3 39 -9 60 -13z
m198 -43 c47 -11 155 -32 240 -46 85 -15 237 -45 339 -67 244 -52 506 -88
1005 -138 225 -23 411 -42 412 -43 2 -2 -17 -244 -37 -487 -5 -69 -17 -215
-26 -325 -8 -110 -17 -205 -19 -211 -2 -7 -24 -8 -67 -3 -34 4 -146 17 -248
29 -102 12 -219 25 -260 30 -75 9 -311 36 -600 70 -85 10 -156 17 -158 15 -1
-1 -5 -26 -9 -54 -5 -43 -9 -51 -22 -45 -34 16 -103 15 -165 0 -44 -11 -82
-15 -116 -10 -50 7 -50 7 -45 38 5 26 1 36 -24 60 -17 17 -31 40 -31 52 0 12
-12 37 -26 54 -17 20 -27 45 -28 68 -6 123 -13 145 -39 123 -19 -15 -76 -32
-81 -23 -10 17 17 133 45 197 l31 69 -51 46 c-28 25 -51 52 -51 60 0 23 -38
91 -75 132 -43 47 -50 99 -36 278 6 74 11 141 11 148 0 8 8 10 23 7 12 -3 61
-14 108 -24z m8653 -52 c33 -47 76 -193 76 -259 0 -86 12 -145 34 -173 22 -27
23 -27 52 -12 27 14 30 13 41 -3 60 -90 81 -113 111 -123 49 -16 39 -43 -17
-47 -36 -3 -55 -12 -97 -49 l-53 -45 -7 26 c-8 32 -20 26 -29 -15 -7 -30 -9
-31 -46 -25 l-40 6 7 -49 6 -50 -83 -91 c-103 -113 -138 -165 -153 -232 l-12
-53 -31 85 c-17 47 -61 161 -97 253 l-65 169 27 76 c24 71 27 90 27 230 l0
154 28 22 c26 21 27 25 27 117 0 91 1 96 24 107 21 9 29 6 63 -22 l38 -34 45
32 c38 26 68 41 90 45 3 0 18 -18 34 -40z m-4943 -310 c22 -51 64 -77 179
-110 83 -24 80 -24 80 11 l0 30 67 0 c66 0 66 0 48 -20 -10 -11 -16 -22 -14
-24 2 -2 40 -15 84 -30 49 -16 85 -34 93 -46 11 -19 23 -20 184 -20 l172 0
-59 -37 c-148 -91 -287 -201 -322 -253 l-36 -53 10 -78 9 -77 -59 -49 -59 -48
7 -75 c4 -41 8 -115 9 -165 1 -116 9 -127 105 -156 94 -27 117 -42 141 -89 11
-21 26 -40 35 -43 11 -5 15 -21 15 -57 l0 -50 -262 5 c-145 3 -367 8 -495 11
l-231 6 -4 213 -3 214 -27 28 c-35 37 -38 91 -6 135 l21 30 -17 112 c-31 195
-37 249 -35 321 2 62 -2 77 -30 126 -28 51 -31 63 -31 146 l0 90 107 6 c58 4
137 7 174 7 89 0 119 11 120 47 1 21 3 23 6 8 3 -11 14 -41 24 -66z m-1221 37
c146 -8 351 -17 455 -21 105 -3 216 -8 248 -11 l57 -6 0 -96 c0 -89 3 -101 30
-147 27 -45 30 -59 30 -135 0 -47 7 -128 16 -180 8 -52 18 -125 21 -161 l5
-66 -53 4 c-30 2 -256 12 -504 23 -524 23 -817 39 -823 44 -2 3 4 94 12 203 9
109 21 259 26 333 5 74 13 159 16 189 l7 54 96 -6 c53 -4 215 -13 361 -21z
m-4078 -27 c26 -7 49 -18 52 -24 2 -7 -2 -39 -8 -73 -13 -59 -13 -61 16 -107
l30 -48 98 6 c74 4 105 1 125 -9 15 -8 39 -13 54 -12 14 1 44 -4 65 -11 24 -9
62 -11 99 -8 37 3 73 0 97 -8 23 -8 42 -10 51 -4 22 14 116 11 209 -7 47 -9
114 -19 150 -22 62 -7 65 -8 61 -32 -3 -21 -70 -310 -177 -760 -13 -58 -32
-136 -41 -175 -9 -38 -19 -73 -22 -77 -7 -8 -422 90 -896 211 -454 116 -431
109 -444 137 -17 37 -13 85 9 121 16 26 17 34 6 40 -12 7 -11 18 1 70 14 57
19 63 49 73 41 14 50 26 33 46 -11 13 -10 19 8 32 35 28 56 71 64 130 5 37 18
70 38 99 26 37 30 49 25 86 -5 38 -1 49 40 111 38 58 46 77 46 116 0 43 4 51
41 85 24 22 48 35 58 32 9 -3 37 -11 63 -18z m6528 -366 c-12 -9 -29 -31 -37
-50 -13 -31 -12 -38 3 -60 15 -24 20 -25 70 -20 53 5 56 4 86 -29 30 -33 33
-34 109 -34 69 0 86 4 148 35 78 39 166 61 206 51 17 -4 31 -18 41 -41 13 -31
18 -35 53 -35 28 0 50 -9 83 -34 32 -24 58 -36 89 -39 43 -3 42 -4 -10 -5 -41
-2 -62 -8 -89 -28 l-34 -27 -52 22 c-75 31 -142 28 -186 -7 -19 -16 -56 -34
-82 -41 -30 -9 -50 -20 -53 -32 -8 -24 -17 -24 -33 1 -7 11 -19 20 -27 20 -18
0 -18 5 -4 32 6 11 9 22 7 24 -3 2 -33 -39 -69 -91 -35 -52 -66 -95 -69 -95
-4 0 -15 26 -26 58 l-20 57 -95 47 c-64 32 -130 55 -200 70 -57 13 -104 28
-104 33 0 6 16 19 34 30 18 11 69 53 114 94 101 92 160 136 165 121 2 -6 -6
-19 -18 -27z m3363 -243 c41 -107 89 -231 107 -274 18 -45 30 -92 28 -110 -3
-34 13 -31 -210 -50 l-78 -7 0 28 c0 15 -7 63 -15 106 -21 111 -19 186 6 244
31 72 44 185 24 223 -15 29 -15 29 17 38 18 5 36 6 40 3 3 -3 40 -94 81 -201z
m-3790 35 c17 -4 46 -15 63 -25 18 -10 81 -28 140 -41 66 -14 146 -40 203 -65
l94 -42 29 -74 c27 -71 28 -77 22 -190 -4 -65 -4 -118 -2 -118 3 0 24 31 47
70 23 38 45 71 49 74 5 3 -3 -27 -16 -66 -17 -53 -25 -103 -29 -192 -9 -186
-9 -286 1 -338 l8 -47 -33 -5 c-19 -3 -149 -7 -289 -10 l-255 -6 -19 33 c-71
121 -96 180 -96 229 0 41 -4 54 -24 69 -13 10 -29 31 -35 46 -15 37 -61 65
-145 89 -91 25 -101 41 -87 130 7 45 7 73 0 86 -5 10 -12 46 -15 81 l-4 62 59
47 c57 46 59 49 55 88 -2 22 -6 58 -8 79 l-4 39 62 7 c33 3 86 12 116 19 50
12 56 11 68 -5 6 -10 27 -20 45 -24z m3605 -61 c-24 -64 -28 -164 -13 -330 8
-93 11 -90 -78 -96 l-49 -3 -59 117 c-58 114 -60 119 -70 233 -6 64 -8 119 -5
122 3 4 70 18 149 33 l142 26 3 -22 c2 -12 -7 -48 -20 -80z m-301 -78 l11
-124 66 -132 66 -131 0 -265 c0 -145 -3 -264 -6 -264 -3 0 -49 18 -102 40 -80
34 -110 53 -172 110 -41 38 -80 70 -87 70 -6 0 -189 -36 -405 -80 -216 -44
-399 -80 -405 -80 -8 0 -13 15 -13 41 0 36 7 48 61 104 l61 64 -27 35 c-20 26
-26 44 -23 72 3 38 3 38 71 55 37 9 105 20 150 23 115 9 166 24 208 62 20 17
51 35 69 39 28 6 31 10 26 34 -4 14 -9 65 -13 112 l-6 86 67 90 c54 75 74 94
113 111 44 18 139 38 223 46 19 1 40 4 45 4 7 1 15 -47 22 -122z m-2170 0 c2
-2 -8 -11 -23 -20 -14 -10 -35 -39 -46 -64 -12 -26 -32 -64 -46 -85 -20 -30
-28 -35 -39 -26 -7 7 -15 10 -17 8 -63 -83 -106 -174 -141 -304 l-22 -79 25
-61 c33 -80 61 -207 62 -276 0 -41 -9 -77 -31 -130 -17 -41 -35 -84 -40 -96
-9 -25 -72 -42 -98 -26 -9 5 -31 39 -49 74 -36 70 -45 138 -45 349 0 309 13
375 117 581 59 120 62 123 103 135 23 7 57 24 75 38 45 34 92 36 158 8 29 -12
55 -24 57 -26z m127 -61 c17 -13 57 -34 89 -46 63 -24 62 -20 71 -157 5 -68 2
-80 -30 -152 -40 -91 -46 -160 -15 -160 11 0 26 -3 35 -6 11 -4 19 7 31 49 15
51 19 56 65 76 64 28 78 27 85 -6 4 -16 26 -68 50 -117 l44 -89 -38 -42 c-23
-25 -41 -56 -45 -78 -4 -20 -16 -43 -28 -51 -12 -9 -24 -33 -29 -62 -5 -27
-20 -65 -34 -86 -14 -21 -25 -46 -25 -55 0 -21 7 -21 -352 -27 -142 -2 -258 0
-258 4 0 5 9 29 20 55 11 26 20 68 20 95 0 64 -33 222 -61 289 -21 49 -22 58
-10 115 15 71 64 195 99 249 20 30 28 35 39 26 7 -7 15 -10 16 -8 2 2 14 20
29 39 14 19 39 63 56 97 18 34 40 67 49 73 26 15 90 3 127 -25z m-525 -5 l22
-31 -42 -52 c-54 -65 -109 -128 -109 -124 0 3 65 199 75 225 8 21 30 13 54
-18z m-2511 -19 c320 -15 584 -30 586 -32 2 -2 0 -29 -5 -59 -8 -52 -7 -56 21
-85 l30 -31 7 -217 c6 -204 5 -218 -12 -231 -17 -12 -18 -20 -6 -132 7 -66 15
-127 17 -137 4 -13 -19 -2 -78 38 -92 61 -145 77 -167 51 -21 -25 -48 -19 -98
19 -26 20 -56 37 -67 40 -12 2 -239 13 -506 25 -267 11 -500 23 -519 26 l-34
5 7 87 c3 48 10 139 16 202 5 63 14 185 20 270 15 221 3 199 112 193 51 -2
355 -17 676 -32z m-1487 -131 c332 -38 618 -72 634 -75 28 -5 30 -8 28 -43 -2
-20 -14 -172 -28 -337 -14 -165 -29 -356 -35 -425 -18 -234 -21 -250 -39 -250
-38 0 -904 96 -1201 133 -142 18 -175 25 -173 37 15 97 165 1000 169 1013 3 9
13 17 23 17 10 0 290 -31 622 -70z m3865 31 c-15 -51 -24 -60 -18 -18 4 27 18
57 27 57 2 0 -2 -18 -9 -39z m3357 -206 c9 -25 35 -69 59 -97 23 -29 44 -55
45 -56 1 -2 20 -6 43 -9 51 -7 34 -23 -24 -23 -22 0 -47 -7 -57 -16 -22 -20
-52 -14 -102 21 -21 13 -49 28 -62 31 -14 3 -28 10 -30 15 -3 4 -83 -19 -177
-51 -94 -33 -173 -60 -174 -60 -2 0 -4 56 -4 125 0 121 1 125 23 130 30 7 319
32 389 34 l56 1 15 -45z m-10421 -4 c62 -16 239 -62 393 -101 154 -40 281 -72
282 -73 2 -2 0 -8 -112 -426 -47 -177 -84 -330 -80 -339 21 -54 356 -579 579
-907 l264 -388 -13 -37 c-12 -34 -11 -39 10 -67 13 -16 27 -43 30 -59 4 -16
11 -41 17 -55 14 -38 -12 -82 -68 -115 -30 -18 -43 -31 -40 -41 4 -8 -4 -29
-16 -46 -18 -25 -24 -49 -27 -109 -3 -75 -4 -77 -35 -90 -46 -19 -143 -13
-306 21 -176 37 -184 43 -194 150 -9 96 -26 136 -62 144 -23 5 -43 28 -93 102
-65 98 -110 135 -164 135 -19 0 -28 9 -41 43 -25 65 -57 91 -114 92 -36 0 -51
5 -65 22 -9 12 -33 27 -51 33 -33 11 -34 12 -24 47 18 66 5 141 -46 258 -27
61 -64 149 -83 196 l-35 85 26 38 c14 22 26 45 26 53 0 23 -42 115 -67 150
-21 27 -22 34 -11 53 9 15 19 19 36 15 20 -5 22 -2 22 34 0 30 5 43 20 51 26
14 28 65 3 73 -10 2 -26 8 -35 12 -14 5 -18 2 -18 -15 0 -18 -5 -21 -32 -18
-33 3 -33 3 -38 68 -4 46 -13 77 -31 105 -37 58 -50 129 -39 206 14 90 2 227
-21 261 -12 16 -19 43 -19 72 0 40 11 65 76 177 69 117 76 133 70 168 -5 33
-1 51 10 51 2 0 54 -13 116 -29z m10625 -153 c-3 -8 -6 -5 -6 6 -1 11 2 17 5
13 3 -3 4 -12 1 -19z m-367 -92 c0 -83 7 -76 -92 -97 -43 -9 -72 -24 -125 -66
-37 -30 -76 -69 -85 -86 -17 -32 -17 -31 -18 94 l0 125 148 52 c81 28 153 51
160 51 8 1 12 -20 12 -73z m88 58 c25 -17 28 -52 11 -103 -9 -25 -16 -31 -40
-31 l-29 0 0 75 c0 65 2 75 18 75 10 0 28 -7 40 -16z m-9245 -89 c588 -139
697 -167 697 -175 0 -4 -9 -52 -20 -106 -10 -55 -46 -243 -80 -419 -33 -176
-65 -340 -70 -365 -5 -25 -23 -119 -40 -210 -62 -327 -91 -465 -100 -474 -6
-6 -20 0 -39 18 l-28 27 -37 -34 c-32 -31 -36 -40 -37 -88 0 -30 -3 -62 -7
-71 -15 -37 -839 1219 -828 1262 3 8 28 103 56 210 29 107 60 224 70 260 10
36 28 103 40 150 12 47 24 91 26 98 2 8 12 11 21 8 10 -3 179 -44 376 -91z
m8516 -129 l74 -75 -17 -103 c-10 -57 -16 -119 -14 -138 3 -30 8 -36 43 -49
22 -8 41 -16 43 -17 10 -6 -30 -74 -50 -85 -20 -11 -1039 -220 -1045 -214 -4
3 -62 373 -77 487 l-12 96 48 37 c69 51 75 52 70 10 -4 -35 -4 -35 33 -35 34
0 186 30 645 125 85 18 162 33 170 34 9 0 49 -33 89 -73z m-3529 38 l275 -6
64 -115 c36 -64 86 -148 113 -187 26 -39 48 -76 48 -82 0 -6 -14 -32 -31 -57
-22 -33 -45 -53 -77 -67 -26 -12 -57 -30 -69 -42 l-22 -21 24 -31 c21 -28 23
-34 10 -47 -11 -11 -13 -26 -6 -67 l8 -52 -35 -20 c-38 -23 -35 -24 -69 33
-20 31 -24 32 -89 12 -46 -14 -101 -17 -641 -39 l-101 -4 -16 62 c-20 78 -59
336 -52 343 3 3 -12 40 -34 82 -33 67 -40 91 -49 186 -10 101 -10 111 6 123
14 11 65 12 243 8 124 -3 349 -9 500 -12z m-3960 -139 c140 -25 256 -48 258
-50 2 -2 -5 -61 -17 -130 -12 -69 -19 -130 -16 -136 4 -5 18 -9 33 -9 15 0
107 -10 205 -22 143 -18 177 -25 177 -38 0 -14 -112 -1043 -114 -1046 -1 -2
-4 -2 -578 95 -262 45 -482 81 -488 81 -6 0 -9 8 -6 18 5 14 93 472 166 857
10 55 33 171 49 258 17 87 31 163 31 169 0 6 10 8 23 5 12 -3 137 -26 277 -52z
m2135 40 c165 -8 379 -18 475 -21 l175 -7 52 -38 c57 -43 114 -53 131 -23 14
24 59 5 167 -69 62 -43 95 -73 107 -97 13 -27 71 -338 80 -433 1 -10 42 -50
90 -90 48 -40 87 -74 87 -77 1 -3 -70 -2 -156 2 -87 3 -284 11 -438 17 -583
23 -830 34 -833 37 -2 1 0 62 5 136 5 73 9 134 8 135 -1 3 -344 33 -378 33
l-28 0 6 63 c13 145 35 413 35 430 0 21 16 22 415 2z m5550 -55 l88 -40 -5
-93 c-4 -71 -3 -86 5 -67 6 14 12 27 13 28 1 2 12 1 23 -3 18 -5 21 -14 21
-64 0 -73 -23 -141 -72 -213 -36 -54 -41 -58 -78 -58 -47 0 -63 15 -80 74 -11
40 -11 49 3 64 8 9 25 41 36 70 l21 53 -32 13 c-18 7 -41 16 -50 19 -10 4 -18
14 -18 24 0 18 34 233 36 233 1 0 41 -18 89 -40z m-1260 -179 c11 -113 16
-223 13 -302 -4 -110 -7 -130 -31 -177 -23 -43 -37 -57 -80 -78 -44 -22 -59
-37 -98 -103 -26 -42 -52 -96 -59 -120 -10 -39 -13 -42 -28 -28 -25 21 -90 28
-154 16 -73 -14 -185 8 -230 46 -16 14 -35 25 -41 25 -8 0 -21 51 -34 133 -13
72 -32 182 -42 242 -11 61 -27 151 -36 200 -8 50 -17 99 -20 111 -4 19 2 21
103 33 82 9 115 9 137 1 19 -8 59 -10 111 -6 72 6 82 5 98 -13 18 -20 19 -20
65 6 25 15 102 64 171 109 69 45 128 83 131 83 3 1 14 -79 24 -178z m-1481 89
c4 -29 24 -81 47 -124 39 -73 40 -76 49 -223 27 -416 28 -465 8 -505 -22 -44
-22 -60 -4 -113 13 -37 12 -43 -10 -87 -13 -26 -24 -49 -24 -51 0 -3 17 -7 38
-11 29 -4 42 -12 51 -32 6 -15 10 -27 9 -28 -2 -2 -24 -16 -50 -32 -36 -22
-49 -37 -54 -60 -4 -20 -15 -36 -29 -42 -14 -6 -26 -23 -30 -41 -4 -21 -27
-48 -72 -86 l-64 -55 -27 19 c-55 39 -63 53 -50 94 6 20 9 39 7 40 -2 2 -35
27 -74 56 -120 90 -155 150 -122 214 7 13 11 43 9 66 l-4 41 -53 0 -54 0 -70
83 c-65 75 -74 91 -102 180 -17 55 -29 100 -27 101 2 2 22 13 46 26 45 25 47
32 32 95 -8 34 -6 43 10 59 19 19 19 20 -1 48 -24 34 -17 49 34 69 46 18 85
57 113 111 l24 48 -56 85 c-32 47 -55 87 -53 90 5 4 530 22 540 18 4 -1 9 -25
13 -53z m603 -103 c1 -2 25 -128 52 -282 28 -154 55 -302 61 -328 16 -78 13
-102 -15 -117 -14 -7 -43 -42 -66 -76 -33 -52 -47 -65 -74 -70 -33 -6 -34 -7
-41 -71 -5 -55 -10 -66 -30 -75 -19 -9 -28 -8 -44 7 -24 21 -52 16 -106 -21
-26 -18 -56 -29 -91 -32 l-52 -4 -17 41 c-9 22 -21 41 -28 41 -31 1 -38 17
-22 49 16 29 16 35 0 84 -16 51 -16 55 4 97 14 32 19 60 16 95 -2 28 -8 158
-14 290 -6 132 -13 250 -16 263 -3 16 0 22 12 22 9 0 34 5 54 11 30 9 41 19
52 48 l14 36 175 -3 c95 -2 175 -4 176 -5z m-4677 -187 c96 -11 281 -32 410
-45 129 -14 276 -29 325 -35 50 -5 155 -14 235 -20 80 -6 160 -14 179 -16 l34
-5 -7 -117 c-12 -190 -25 -432 -36 -667 -6 -121 -13 -230 -16 -242 -4 -22 -9
-23 -97 -23 -50 0 -157 7 -237 15 -266 29 -934 96 -1007 102 -39 3 -77 9 -83
13 -9 6 -8 39 3 141 8 74 35 311 58 527 26 236 47 392 54 392 5 0 89 -9 185
-20z m6693 -57 c24 -55 47 -125 47 -145 0 -21 91 -88 120 -88 22 0 23 -1 5
-20 -15 -17 -31 -20 -96 -20 l-78 0 -10 38 c-55 206 -64 254 -50 263 27 17 46
9 62 -28z m-68 -140 l40 -158 88 -3 c49 -2 87 -7 87 -13 0 -5 -11 -31 -24 -57
-13 -26 -27 -74 -31 -107 -4 -32 -16 -77 -27 -100 l-19 -40 5 86 5 86 -54 53
c-35 35 -59 51 -69 47 -13 -5 -16 1 -16 29 0 20 -6 59 -14 87 -8 29 -17 69
-21 90 -5 32 -10 37 -32 37 l-26 0 8 -72 c16 -157 20 -228 12 -228 -4 0 -24 7
-45 15 l-37 15 50 -43 c91 -77 120 -105 114 -111 -4 -4 -145 83 -177 109 -2 2
1 35 6 74 10 68 9 72 -22 130 l-31 59 -35 -28 -35 -28 -35 30 c-19 17 -57 45
-85 62 l-50 32 -124 -58 c-68 -32 -125 -58 -127 -58 -8 0 -4 90 4 90 4 1 147
30 317 64 171 35 321 64 335 65 24 1 27 -5 65 -156z m-1006 10 c1 -19 6 -33
14 -33 6 0 58 9 115 20 56 11 107 20 112 20 6 0 10 -29 10 -65 0 -36 2 -65 3
-65 2 0 61 27 132 61 70 33 129 59 131 57 2 -2 -27 -49 -65 -104 -37 -55 -74
-121 -81 -147 -14 -45 -16 -47 -51 -47 -33 0 -41 -6 -72 -47 -46 -64 -61 -96
-77 -167 -12 -49 -23 -68 -66 -113 -31 -32 -76 -64 -110 -80 -56 -25 -61 -26
-128 -14 -39 6 -74 15 -78 19 -4 4 -26 59 -49 122 -39 109 -41 118 -31 168 7
31 30 83 57 126 38 61 53 76 96 96 45 22 55 32 85 92 26 52 34 81 35 125 1 44
3 52 9 33 4 -14 8 -40 9 -57z m661 -114 c0 -4 -6 -10 -12 -12 -7 -3 12 -3 42
0 30 3 56 7 58 8 3 3 7 20 11 45 1 3 11 -11 22 -30 19 -31 21 -44 15 -114 l-6
-80 105 -100 c58 -56 105 -107 105 -114 0 -8 -23 -12 -77 -12 l-78 0 55 -35
c30 -19 80 -42 110 -51 80 -22 113 -35 133 -52 24 -21 21 -42 -7 -42 -24 0
-491 -104 -636 -141 -19 -5 -111 -14 -205 -19 -93 -6 -210 -17 -260 -25 -143
-24 -490 -74 -493 -71 -6 7 71 58 106 70 31 11 38 18 40 44 4 37 71 102 105
102 12 -1 47 -7 78 -14 52 -13 60 -12 111 9 112 46 196 130 217 220 17 68 42
124 76 163 23 28 34 33 63 30 34 -3 35 -2 57 61 13 35 52 106 87 156 l63 92
57 -40 c32 -23 58 -44 58 -48z m-2969 28 c15 -23 39 -82 54 -132 30 -102 72
-170 150 -244 47 -45 59 -51 95 -51 l42 0 -6 -37 c-21 -130 -21 -128 18 -176
20 -25 68 -69 106 -98 39 -29 70 -56 70 -60 0 -3 -9 -18 -20 -32 l-20 -25 59
-50 59 -49 -29 -53 c-16 -29 -44 -72 -64 -95 -25 -31 -35 -53 -35 -78 0 -33
-2 -35 -42 -40 -45 -6 -75 7 -59 27 13 15 44 126 37 133 -5 5 -169 -2 -683
-27 -105 -6 -212 -10 -237 -10 l-46 0 0 355 c0 334 -1 355 -19 372 -10 10 -30
41 -44 69 -25 50 -25 52 -8 68 23 21 19 61 -7 84 -12 9 -51 42 -87 72 l-67 55
54 7 c29 4 179 11 333 16 209 7 290 14 320 25 22 9 42 16 45 16 3 1 17 -18 31
-42z m3268 -111 c1 -80 -5 -68 -12 24 -3 44 -2 67 3 55 5 -11 9 -47 9 -79z
m-4854 -36 c121 -5 364 -14 540 -20 176 -6 339 -13 363 -16 45 -6 54 -22 22
-42 -20 -12 -20 -13 6 -65 15 -28 35 -64 45 -79 18 -24 19 -49 19 -308 l0
-282 -87 6 c-82 6 -201 10 -973 36 -162 5 -342 12 -399 16 l-104 6 7 138 c13
277 26 507 32 568 l6 63 151 -6 c84 -3 251 -10 372 -15z m3151 -155 c19 -15
64 -32 109 -42 65 -14 86 -15 134 -5 67 14 117 7 147 -20 12 -11 40 -72 64
-140 l43 -120 -47 -47 c-26 -27 -46 -56 -46 -68 0 -17 -9 -25 -40 -34 -25 -8
-56 -30 -84 -59 -43 -45 -48 -48 -113 -54 -37 -4 -99 -11 -138 -16 -38 -5
-230 -28 -425 -51 -326 -38 -359 -44 -408 -70 -52 -27 -54 -27 -100 -12 -26 9
-48 17 -50 19 -11 9 37 69 102 127 46 41 76 76 76 88 0 12 13 27 30 37 19 11
30 25 30 40 0 26 30 59 66 72 14 6 57 13 96 17 51 4 77 12 97 28 53 44 70 49
96 25 l23 -21 39 20 c38 19 40 23 46 75 7 67 12 76 42 76 18 0 33 15 64 64 40
65 73 96 100 96 8 0 29 -11 47 -25z m-5810 -395 c632 -106 584 -95 579 -128
-13 -83 -26 -168 -40 -252 -8 -52 -51 -329 -95 -615 -43 -286 -82 -534 -85
-550 l-7 -30 -268 30 -268 30 -183 124 c-101 69 -244 167 -317 219 l-134 95 4
126 c3 113 5 130 26 155 12 16 22 36 22 45 0 9 20 28 43 43 63 40 75 85 47
175 -11 37 -28 76 -38 86 -16 18 -16 20 0 31 13 10 19 36 24 120 6 90 10 111
27 127 21 19 21 19 49 -8 l28 -27 25 25 c20 20 30 48 47 142 12 64 25 117 29
117 4 0 222 -36 485 -80z m7734 26 c0 -17 -14 -34 -48 -60 -41 -30 -54 -34
-84 -29 l-36 5 7 -33 c7 -33 9 -34 51 -32 33 2 51 9 75 33 42 40 67 38 104 -9
36 -45 39 -56 12 -41 -30 16 -34 14 -75 -50 -41 -64 -43 -65 -96 -50 -27 8
-46 6 -85 -7 l-50 -17 63 -14 c72 -16 77 -27 31 -80 -18 -20 -28 -37 -23 -39
6 -2 32 3 59 11 54 17 65 14 49 -12 -15 -25 -71 -50 -135 -62 -50 -10 -59 -15
-92 -60 -41 -55 -77 -140 -77 -182 0 -20 -5 -28 -17 -28 -10 0 -29 -6 -43 -13
-24 -13 -33 -8 -168 84 l-144 98 -138 -6 c-130 -6 -139 -5 -168 16 -30 21 -35
21 -139 11 -59 -6 -144 -13 -188 -17 -69 -5 -85 -10 -123 -40 -24 -18 -51 -33
-60 -33 -9 0 -64 -7 -122 -14 -58 -8 -106 -13 -107 -12 -2 1 6 29 17 62 l20
60 105 59 c90 51 107 65 120 97 12 31 20 38 41 38 16 0 44 14 68 34 23 18 92
65 154 104 126 79 110 75 374 92 109 7 194 19 280 39 68 16 184 43 258 60 74
17 162 37 195 45 33 8 77 15 98 15 33 1 37 -2 37 -23z m-6755 -167 c171 -17
432 -43 580 -58 l270 -26 4 -40 c1 -22 -2 -105 -8 -185 -6 -80 -15 -215 -21
-300 -6 -85 -15 -211 -20 -280 -5 -69 -14 -206 -20 -305 -16 -249 -8 -229 -83
-221 -34 4 -125 11 -202 16 -606 41 -569 40 -573 15 -3 -20 -5 -20 -160 -8
-230 17 -212 19 -212 -23 l0 -37 -72 7 c-39 3 -73 8 -74 9 -1 1 7 56 17 122
20 123 29 185 49 315 6 41 15 100 20 130 5 30 14 89 20 130 17 110 24 156 74
479 25 162 46 296 46 297 0 2 12 1 28 -1 15 -3 167 -19 337 -36z m5465 -55
c-41 -26 -94 -62 -117 -80 -27 -22 -52 -34 -72 -34 -27 0 -33 -5 -47 -40 -14
-33 -29 -48 -88 -82 -145 -84 -142 -81 -166 -153 -16 -47 -28 -69 -44 -74 -11
-4 -149 -20 -306 -35 -157 -15 -321 -32 -365 -37 -103 -12 -556 -32 -563 -24
-3 3 8 18 25 33 40 35 68 137 58 215 -6 48 -4 54 20 77 15 14 33 37 41 52 l14
27 62 -21 62 -21 50 28 c58 33 98 39 751 115 303 35 347 40 535 69 102 16 194
29 205 30 11 0 -14 -20 -55 -45z m-3870 -54 c129 -5 388 -14 575 -20 187 -6
377 -13 422 -16 l82 -6 5 -41 c9 -65 30 -827 23 -833 -8 -8 -59 20 -81 45 -15
17 -31 21 -77 21 -32 0 -70 -5 -86 -11 -43 -17 -316 -19 -339 -2 -11 8 -47 13
-93 13 -69 1 -79 3 -111 30 -26 23 -44 30 -75 30 -27 0 -71 15 -134 44 -51 25
-111 48 -133 51 l-39 7 1 291 2 292 -289 6 c-158 3 -305 7 -325 8 l-38 1 0 56
0 57 238 -7 c130 -4 343 -11 472 -16z m-89 -134 c2 -2 2 -132 -1 -288 -3 -166
-1 -286 4 -290 5 -3 29 -9 53 -13 25 -3 86 -26 136 -51 52 -25 105 -44 124
-44 37 0 82 -20 102 -44 10 -12 33 -16 90 -16 50 0 84 -5 97 -14 16 -12 53
-14 175 -12 85 2 167 8 182 15 16 6 49 11 74 11 38 0 52 -6 84 -35 23 -20 50
-35 64 -35 14 0 25 -4 25 -10 0 -5 13 -10 30 -10 34 0 32 4 55 -142 8 -54 15
-140 15 -191 l0 -92 41 -50 c48 -57 67 -98 85 -181 15 -70 5 -120 -41 -199
-22 -36 -26 -55 -23 -97 3 -50 1 -53 -21 -56 -14 -2 -40 -14 -60 -27 -45 -31
-71 -20 -71 30 0 19 -2 35 -5 35 -3 0 -24 -12 -46 -26 -30 -19 -39 -30 -34
-42 32 -76 -35 -152 -214 -242 -43 -22 -77 -22 -174 -3 -27 5 -28 3 -22 -18 4
-13 16 -36 26 -52 25 -35 20 -43 -33 -51 -63 -9 -109 -36 -102 -59 8 -24 -13
-47 -42 -47 -19 0 -24 -5 -24 -27 0 -36 -33 -89 -59 -98 -12 -3 -21 -12 -21
-18 0 -7 -3 -22 -6 -34 -5 -19 -2 -22 32 -25 45 -4 53 -22 30 -69 -14 -28 -14
-34 1 -62 9 -19 18 -67 21 -119 l5 -87 -48 14 c-26 8 -85 21 -130 29 -46 8
-100 24 -122 35 -58 30 -129 109 -153 171 -12 30 -36 83 -55 117 -19 34 -41
85 -49 114 -13 41 -31 68 -86 125 -63 65 -70 76 -70 112 0 29 -7 49 -25 70
-16 19 -25 42 -25 64 0 32 -9 42 -110 126 -103 86 -114 92 -173 102 -34 5 -86
17 -116 26 -50 14 -57 14 -100 -2 -25 -9 -47 -18 -49 -19 -1 -1 -7 -28 -12
-60 -10 -63 -20 -79 -60 -100 -25 -13 -31 -11 -90 27 -35 23 -91 67 -124 99
-56 52 -63 62 -75 120 -8 43 -25 80 -52 117 -26 37 -39 66 -39 87 0 29 -8 39
-70 84 -38 28 -70 57 -70 65 0 25 -108 140 -155 166 -52 28 -54 46 -4 42 453
-31 792 -53 795 -49 5 5 19 164 34 387 6 91 15 219 20 285 5 66 14 203 20 305
7 102 14 195 16 208 l4 22 309 0 c169 0 310 -2 312 -4z m2134 -38 c-4 -18 -14
-45 -23 -60 -15 -26 -15 -29 8 -53 22 -24 29 -25 77 -19 29 3 53 3 53 -1 0
-35 -39 -127 -66 -158 -19 -20 -34 -42 -34 -49 0 -6 -18 -28 -40 -48 l-40 -37
17 -41 16 -41 -40 -53 c-85 -112 -96 -139 -95 -243 l0 -94 -36 -5 c-21 -3
-125 -8 -232 -11 -107 -3 -236 -8 -286 -11 l-92 -6 -6 54 c-12 93 -17 108 -34
108 -40 1 -41 7 -58 383 -9 203 -15 370 -13 371 2 2 132 9 289 16 319 14 583
26 618 28 22 2 23 -1 17 -30z m2073 -158 c23 -19 39 -21 173 -19 l147 1 132
-90 131 -90 -37 -26 c-29 -19 -43 -40 -61 -87 -13 -34 -23 -69 -23 -79 0 -11
-12 -22 -30 -29 -22 -7 -36 -22 -49 -54 -18 -43 -34 -54 -98 -72 -16 -4 -23
-14 -23 -30 0 -25 -22 -35 -77 -35 -18 0 -33 -3 -33 -6 0 -3 12 -21 26 -40 30
-39 27 -52 -7 -34 -13 8 -39 10 -65 6 l-44 -6 -41 63 c-23 34 -74 104 -112
155 -66 87 -72 92 -107 92 -46 0 -56 8 -138 109 -52 66 -75 87 -102 94 -19 5
-43 16 -52 24 -16 14 -16 18 -2 44 8 16 19 29 24 29 5 0 26 15 46 33 36 31 40
32 198 48 89 9 169 17 179 18 11 0 31 -8 45 -19z m-530 -118 c-11 -28 -10 -34
12 -57 13 -14 34 -25 46 -25 31 0 79 -44 144 -130 51 -66 56 -70 102 -76 47
-6 52 -10 112 -88 35 -44 85 -114 112 -155 l48 -73 48 6 c49 7 120 -17 102
-34 -5 -4 -43 -32 -84 -61 -75 -54 -75 -54 -42 -57 36 -4 42 -17 13 -27 -20
-6 -23 -19 -36 -137 -4 -35 -2 -65 5 -78 12 -22 11 -22 -57 -15 -37 4 -72 8
-78 9 -11 1 -11 -11 0 -124 5 -61 4 -73 -6 -63 -10 10 -90 13 -331 13 l-318 0
0 24 c0 34 -17 77 -41 102 -17 19 -18 26 -8 73 10 48 9 54 -15 96 l-27 45 17
67 16 68 -37 125 c-20 69 -63 216 -95 327 -32 111 -61 207 -64 212 -7 11 26
17 174 31 58 6 148 16 200 23 52 7 96 12 97 12 2 -1 -3 -15 -9 -33z m-477 -87
c9 -33 54 -185 98 -338 l81 -278 -17 -68 -16 -68 25 -42 c22 -37 24 -47 16
-97 -7 -47 -6 -59 10 -82 10 -15 22 -32 26 -39 5 -9 -60 -11 -288 -6 l-295 6
6 -72 c6 -73 6 -73 -18 -69 -19 2 -23 8 -21 29 2 21 -4 31 -33 48 -39 23 -39
23 -50 -41 -5 -31 -10 -38 -29 -38 -41 0 -49 138 -41 690 l8 478 46 6 c25 3
100 10 166 16 66 6 154 15 195 19 114 13 111 14 131 -54z m-578 -537 c3 -299
8 -560 12 -580 l7 -38 -43 6 c-33 4 -64 -1 -119 -21 -107 -37 -103 -38 -115
25 l-10 55 -212 3 -211 2 -7 49 c-6 44 -4 53 24 91 16 22 32 53 36 68 3 18 21
37 50 56 25 15 45 30 45 32 0 3 -10 24 -21 47 -40 78 -59 166 -60 279 l-2 108
41 67 c23 38 55 84 71 103 29 34 29 35 14 73 l-16 39 37 34 c41 37 46 38 333
42 l142 2 4 -542z m-625 -128 c16 -47 32 -92 36 -101 5 -11 -4 -23 -33 -42
-25 -17 -41 -36 -46 -56 -3 -16 -19 -46 -35 -67 -31 -41 -34 -61 -24 -138 l7
-46 213 0 c164 0 214 -3 214 -12 1 -7 7 -39 15 -71 13 -55 12 -58 -5 -52 -20
6 -170 -33 -170 -45 0 -12 134 -39 145 -29 5 5 17 9 26 9 14 0 16 -5 10 -27
-7 -24 10 -83 23 -83 2 0 16 20 30 45 27 45 46 58 46 30 0 -7 -7 -18 -15 -22
-8 -5 -26 -24 -39 -43 l-23 -35 32 -20 c50 -30 105 -83 105 -99 0 -25 -28 -26
-44 -1 -29 44 -191 77 -212 44 -3 -5 -27 -9 -53 -9 -42 0 -49 -3 -59 -25 l-12
-26 -33 25 c-18 14 -54 35 -80 46 -40 18 -47 25 -47 49 0 28 -1 28 -52 24 -29
-2 -87 -8 -129 -14 -103 -13 -182 -3 -246 32 -50 27 -53 28 -88 13 -21 -8 -39
-13 -42 -11 -2 3 -6 21 -10 40 -4 28 1 46 22 83 40 68 55 135 45 197 -12 77
-46 153 -89 206 l-39 46 -4 128 -5 127 31 1 c17 0 157 6 311 13 154 6 283 9
287 6 4 -3 20 -43 36 -90z m2274 -296 c3 -3 12 -21 18 -42 20 -62 170 -360
235 -467 34 -55 72 -127 85 -160 13 -33 59 -112 101 -176 l77 -116 7 -104 c6
-92 4 -115 -18 -199 -22 -79 -31 -99 -59 -122 -56 -47 -114 -35 -147 30 -21
39 -115 128 -175 163 -26 15 -36 28 -36 47 0 14 -11 40 -25 58 -17 23 -25 45
-25 74 0 30 -4 41 -12 37 -50 -18 -54 -17 -102 29 -47 45 -48 47 -41 87 9 46
10 146 2 154 -3 2 -15 -1 -27 -7 -12 -6 -24 -9 -27 -6 -4 3 -5 43 -5 88 1 46
-1 104 -4 130 -6 47 -7 49 -92 104 -116 76 -191 117 -300 163 l-91 39 -20 -32
c-43 -69 -56 -74 -156 -65 -102 10 -148 25 -228 73 -33 20 -77 37 -106 41 -45
6 -56 3 -104 -24 -30 -17 -66 -31 -79 -31 -23 0 -25 5 -34 75 l-10 75 147 0
c80 0 207 -3 282 -7 l135 -6 6 -31 6 -31 325 3 c220 2 325 -1 325 -8 0 -5 16
-10 36 -10 29 0 34 3 30 18 -2 9 -8 52 -12 95 l-7 79 59 -7 c33 -4 62 -9 66
-11z m-1942 -319 c0 -10 -41 -25 -52 -19 -8 5 -5 10 8 15 22 9 44 11 44 4z"/>
<path d="M2015 2019 c-32 -12 -68 -18 -101 -16 l-51 3 -32 -57 c-25 -45 -35
-56 -51 -52 -11 3 -44 -5 -75 -18 -52 -21 -55 -25 -55 -57 0 -26 15 -57 56
-118 31 -46 63 -84 71 -84 28 0 -6 -29 -48 -42 -46 -13 -55 -8 -39 22 10 19 9
26 -9 43 -19 19 -22 19 -38 5 -17 -14 -36 -20 -120 -35 -38 -6 -38 -6 -17 -38
12 -18 13 -29 6 -38 -6 -7 -12 -26 -14 -42 -3 -27 0 -30 40 -39 35 -7 42 -13
42 -32 0 -28 8 -30 37 -9 20 14 22 14 27 -3 5 -14 14 -17 46 -14 l40 4 0 -57
0 -56 -92 6 c-83 5 -95 4 -116 -14 -13 -11 -21 -28 -20 -42 3 -18 -3 -24 -30
-30 -18 -4 -35 -9 -38 -12 -3 -3 4 -23 15 -46 12 -22 21 -58 21 -80 0 -22 10
-61 22 -86 20 -41 25 -45 49 -40 23 5 28 2 36 -22 7 -20 6 -36 -4 -59 -14 -29
-13 -33 16 -78 l30 -49 17 36 c19 39 50 53 74 33 8 -7 21 -11 29 -8 10 3 12 0
8 -12 -5 -11 -1 -16 13 -16 24 0 25 -18 6 -65 -11 -25 -33 -46 -78 -74 -74
-46 -108 -75 -108 -93 0 -7 8 -23 18 -36 l18 -23 137 66 c95 46 156 82 199
120 35 30 66 55 71 55 4 0 12 12 17 26 8 21 7 29 -5 38 -14 10 -13 16 13 51
16 22 46 56 66 75 l37 35 -7 -45 c-6 -40 -14 -53 -35 -62 -4 -2 -10 -17 -13
-34 -7 -29 -5 -32 25 -38 27 -5 40 0 84 33 31 24 66 41 86 43 33 3 34 4 33 45
0 33 3 43 19 47 29 7 45 -3 78 -50 33 -49 38 -51 160 -58 92 -5 172 -33 236
-82 18 -14 48 -30 66 -36 44 -15 77 -47 77 -76 0 -13 12 -39 28 -57 15 -18 35
-42 44 -54 25 -30 43 -26 66 13 16 28 25 33 43 29 12 -3 27 -19 33 -35 6 -15
18 -28 27 -28 9 0 27 -16 40 -34 20 -30 56 -56 76 -56 5 0 -4 96 -14 137 -4
17 -15 24 -47 28 -35 6 -45 13 -61 43 -11 20 -40 51 -65 70 -25 19 -49 44 -54
57 -10 26 -68 57 -91 49 -9 -4 -15 0 -15 10 0 13 -46 46 -64 46 -3 0 -13 -14
-21 -30 l-16 -31 -25 30 c-33 40 -106 81 -143 81 -16 0 -32 4 -35 8 -3 5 -10
132 -16 283 -15 400 -65 936 -69 740 -1 -50 -2 -53 -23 -47 -13 3 -81 20 -153
36 -181 41 -233 57 -286 91 -25 16 -48 28 -50 28 -2 -1 -26 -10 -54 -20z m103
-40 c48 -30 122 -52 334 -99 l96 -21 17 -41 c9 -23 21 -78 26 -122 10 -81 38
-635 39 -753 l0 -61 53 -7 c57 -8 123 -47 151 -89 9 -14 23 -26 31 -26 8 0 15
-5 15 -11 0 -11 -5 -9 -65 31 -74 49 -144 71 -247 77 l-97 6 -28 39 c-33 48
-68 67 -110 61 -31 -5 -33 -7 -33 -49 0 -39 -2 -44 -23 -44 -13 0 -48 -18 -77
-40 -29 -22 -57 -40 -62 -40 -16 0 -8 29 11 39 26 15 38 131 15 148 -14 10
-25 2 -73 -49 -31 -33 -69 -80 -85 -105 -26 -40 -27 -45 -12 -56 15 -11 8 -19
-53 -74 -67 -59 -90 -72 -245 -142 -64 -29 -95 -31 -78 -5 4 6 40 32 80 57 74
48 98 80 117 160 6 23 4 27 -15 27 -18 0 -21 4 -17 21 5 17 1 20 -23 17 -15
-1 -34 3 -42 10 -18 15 -75 0 -93 -24 -11 -16 -13 -16 -24 4 -9 17 -9 28 2 49
12 22 12 33 -1 75 -16 49 -25 55 -52 38 -20 -12 -49 41 -50 91 0 20 -7 52 -15
72 -16 38 -9 47 37 47 17 0 19 5 15 28 -10 49 12 60 100 49 109 -12 123 -4
123 72 0 82 -5 91 -51 91 -32 0 -39 3 -39 20 0 24 -8 25 -38 4 -19 -13 -22
-13 -22 -1 0 17 -21 27 -56 27 -28 0 -31 20 -8 54 10 16 12 26 5 31 -6 3 -11
9 -11 13 0 10 79 34 90 27 5 -3 11 -1 15 5 16 26 21 6 8 -31 -7 -23 -12 -43
-11 -44 2 -1 32 4 68 11 52 11 70 20 93 46 15 18 27 35 27 39 0 4 -12 10 -27
13 -21 5 -41 26 -75 78 -27 40 -48 82 -48 94 0 28 66 59 106 50 27 -6 31 -2
61 52 31 57 31 57 75 55 32 -2 124 20 145 36 1 0 24 -13 51 -30z m822 -1178
c0 -5 -9 -11 -20 -14 -20 -5 -26 3 -13 16 9 10 33 8 33 -2z m0 -51 c-19 -12
-30 -12 -30 -1 0 10 31 20 40 14 2 -2 -2 -8 -10 -13z m109 -23 c6 -15 3 -34
-10 -59 -22 -43 -13 -82 20 -91 23 -6 26 -15 10 -37 -9 -12 -12 -12 -16 -2 -3
8 -18 28 -33 45 -15 18 -31 46 -34 63 -4 18 -16 40 -27 50 -19 17 -19 18 11
46 26 23 35 26 51 17 11 -6 24 -20 28 -32z m43 -84 c9 -10 19 -28 23 -41 l6
-22 -35 17 c-38 17 -40 21 -30 47 8 21 17 20 36 -1z m88 -56 c0 -21 -25 3 -37
34 l-13 34 25 -30 c14 -16 25 -34 25 -38z m95 -51 c9 -31 14 -76 7 -76 -4 0
-17 16 -30 35 -12 19 -29 35 -37 35 -8 0 -15 6 -15 13 0 16 70 10 75 -7z"/>
<path d="M4110 963 c-20 -3 -70 -58 -70 -77 0 -2 15 -7 34 -10 19 -4 36 -12
39 -19 3 -8 23 -11 61 -9 45 3 56 7 56 21 0 9 5 22 12 29 9 9 9 17 -1 36 -18
33 -54 41 -131 29z m98 -36 c10 -8 9 -14 -4 -28 -18 -20 -74 -26 -74 -9 0 6
-9 10 -20 10 -22 0 -27 15 -8 26 18 11 72 21 83 16 6 -3 16 -10 23 -15z"/>
<path d="M10 927 c0 -7 13 -26 29 -41 39 -37 53 -15 15 25 -30 31 -44 36 -44
16z"/>
<path d="M3973 872 c-15 -11 -20 -22 -14 -30 6 -10 13 -9 32 7 32 26 14 48
-18 23z"/>
<path d="M4508 790 c-1 -11 -2 -27 -2 -36 -1 -10 18 -22 54 -34 l55 -19 24 24
24 23 -24 31 c-21 26 -30 30 -76 30 -46 1 -53 -2 -55 -19z m102 -25 c7 -9 10
-18 7 -21 -10 -10 -80 10 -85 24 -6 18 63 15 78 -3z"/>
<path d="M2036 686 c-3 -14 -18 -28 -33 -35 -51 -19 -65 -35 -53 -65 10 -28
26 -31 79 -16 50 14 81 47 81 87 0 23 -5 33 -15 33 -8 0 -15 5 -15 10 0 22
-38 9 -44 -14z m44 -29 c0 -30 -25 -53 -67 -62 -45 -9 -43 12 3 31 20 8 38 24
41 35 7 27 23 24 23 -4z"/>
<path d="M205 650 c47 -27 65 -30 65 -10 0 15 -56 40 -87 40 -26 0 -24 -3 22
-30z"/>
<path d="M4826 661 c-7 -10 80 -62 88 -53 12 11 5 21 -30 41 -39 23 -50 25
-58 12z"/>
<path d="M4957 604 c13 -40 56 -109 104 -167 4 -5 25 1 49 13 41 21 41 21 38
71 l-4 50 -85 35 c-130 54 -121 55 -102 -2z m100 -28 c43 -16 53 -25 58 -48 7
-30 -8 -58 -30 -58 -6 0 -30 25 -53 56 -39 53 -52 80 -34 72 4 -1 31 -12 59
-22z"/>
<path d="M254 579 c-10 -17 13 -36 27 -22 12 12 4 33 -11 33 -5 0 -12 -5 -16
-11z"/>
<path d="M356 572 c-3 -5 8 -22 25 -38 24 -23 32 -26 38 -15 6 10 0 21 -19 37
-31 26 -36 28 -44 16z"/>
<path d="M1148 484 c-15 -8 -31 -26 -34 -39 -4 -16 -13 -25 -25 -25 -10 0 -19
-7 -19 -15 0 -9 10 -15 26 -15 19 0 28 8 40 35 8 20 19 33 24 30 15 -9 12 -31
-5 -45 -12 -10 -13 -16 -5 -24 8 -8 17 -5 31 13 22 27 23 36 6 73 -11 25 -13
26 -39 12z"/>
<path d="M1357 487 c-10 -7 -13 -17 -9 -24 7 -10 12 -10 25 0 10 7 13 17 9 24
-7 10 -12 10 -25 0z"/>
<path d="M536 455 c4 -8 10 -12 15 -9 11 6 2 24 -11 24 -5 0 -7 -7 -4 -15z"/>
<path d="M647 437 c-4 -11 20 -36 36 -37 15 0 6 30 -12 40 -14 7 -21 6 -24 -3z"/>
<path d="M5195 355 c-13 -11 -33 -42 -45 -68 -17 -42 -18 -51 -6 -70 7 -12 16
-48 19 -79 6 -64 42 -138 66 -138 35 0 59 13 70 36 9 20 16 23 36 18 19 -5 32
-1 48 14 12 11 46 32 75 46 41 21 52 31 52 50 0 14 2 31 5 38 4 10 -9 21 -37
34 -24 11 -55 37 -73 60 -27 37 -38 43 -107 61 -78 19 -78 19 -103 -2z m97
-27 c51 -11 64 -18 95 -56 20 -25 51 -51 69 -58 40 -17 36 -47 -10 -71 -17 -8
-46 -26 -64 -40 -25 -18 -40 -23 -62 -18 -25 5 -31 2 -45 -24 -8 -17 -22 -31
-30 -31 -28 0 -55 61 -55 122 0 31 -5 60 -11 64 -24 15 14 124 43 124 7 0 38
-5 70 -12z"/>
</g>
</svg>
