<?xml version="1.0" encoding="iso-8859-1"?>
<!-- Uploaded to: SVG Repo, www.svgrepo.com, Generator: SVG Repo Mixer Tools -->
<svg height="39px" width="36px" version="1.1" id="Layer_1" xmlns="http://www.w3.org/2000/svg" xmlns:xlink="http://www.w3.org/1999/xlink" 
	 viewBox="0 0 512 512" xml:space="preserve">
<g>
	<g>
		<path style="fill:#42B05C;" d="M256,282.375c-4.882,0-8.828-3.955-8.828-8.828V167.749c0-4.873,3.946-8.828,8.828-8.828
			s8.828,3.955,8.828,8.828v105.799C264.828,278.42,260.882,282.375,256,282.375"/>
		<path style="fill:#42B05C;" d="M256,282.375c-2.26,0-4.52-0.865-6.241-2.586l-26.483-26.483c-3.452-3.452-3.452-9.031,0-12.482
			c3.452-3.452,9.031-3.452,12.482,0L256,261.065l20.242-20.242c3.452-3.452,9.031-3.452,12.482,0c3.452,3.452,3.452,9.031,0,12.482
			l-26.483,26.483C260.52,281.51,258.26,282.375,256,282.375"/>
		<path style="fill:#42B05C;" d="M282.483,203.06c-2.26,0-4.52-0.865-6.241-2.586L256,180.232l-20.242,20.242
			c-3.452,3.452-9.031,3.452-12.482,0c-3.452-3.452-3.452-9.031,0-12.482l26.483-26.483c3.452-3.452,9.031-3.452,12.482,0
			l26.483,26.483c3.452,3.452,3.452,9.031,0,12.482C287.002,202.195,284.743,203.06,282.483,203.06"/>
	</g>
	<path style="fill:#7383BF;" d="M467.862,35.31c0,19.5-94.852,35.31-211.862,35.31S44.138,54.81,44.138,35.31S138.99,0,256,0
		S467.862,15.81,467.862,35.31"/>
	<path style="fill:#586799;" d="M256,70.621c-117.01,0-211.862-15.81-211.862-35.31v70.621c0,19.5,94.852,35.31,211.862,35.31
		s211.862-15.81,211.862-35.31V35.31C467.862,54.81,373.01,70.621,256,70.621"/>
	<path style="fill:#F0CE49;" d="M467.862,335.448c0,19.5-94.852,35.31-211.862,35.31s-211.862-15.81-211.862-35.31
		s94.852-35.31,211.862-35.31S467.862,315.948,467.862,335.448"/>
	<path style="fill:#C9A639;" d="M256,370.759c-117.01,0-211.862-15.81-211.862-35.31v70.621c0,19.5,94.852,35.31,211.862,35.31
		s211.862-15.81,211.862-35.31v-70.621C467.862,354.948,373.01,370.759,256,370.759"/>
	<path style="fill:#ED7161;" d="M256,441.379c-117.01,0-211.862-15.81-211.862-35.31v70.621C44.138,496.19,138.99,512,256,512
		s211.862-15.81,211.862-35.31v-70.621C467.862,425.569,373.01,441.379,256,441.379"/>
</g>
</svg>