<?xml version="1.0" encoding="iso-8859-1"?>
<!-- Uploaded to: SVG Repo, www.svgrepo.com, Generator: SVG Repo Mixer Tools -->
<svg height="39px" width="36px" version="1.1" id="Layer_1" xmlns="http://www.w3.org/2000/svg" xmlns:xlink="http://www.w3.org/1999/xlink" 
	 viewBox="0 0 512 512" xml:space="preserve">
<g>
	<path style="fill:#E8EDEE;" d="M256,441.379H17.655C7.901,441.379,0,433.479,0,423.724V88.276c0-9.754,7.901-17.655,17.655-17.655
		H256v141.241L300.138,256L256,300.138V441.379z"/>
	<path style="fill:#B0B6BB;" d="M256,70.621v141.241L300.138,256L256,300.138v141.241h238.345c9.754,0,17.655-7.901,17.655-17.655
		V88.267c0-9.746-7.901-17.646-17.655-17.646H256z"/>
	<path style="fill:#42B05C;" d="M114.759,123.586H44.138c-4.873,0-8.828-3.955-8.828-8.828s3.955-8.828,8.828-8.828h70.621
		c4.873,0,8.828,3.955,8.828,8.828S119.631,123.586,114.759,123.586"/>
	<path style="fill:#ED7161;" d="M150.069,158.897H79.448c-4.873,0-8.828-3.955-8.828-8.828c0-4.873,3.955-8.828,8.828-8.828h70.621
		c4.873,0,8.828,3.955,8.828,8.828C158.897,154.942,154.942,158.897,150.069,158.897"/>
	<path style="fill:#ECBA16;" d="M185.379,194.207H79.448c-4.873,0-8.828-3.955-8.828-8.828c0-4.873,3.955-8.828,8.828-8.828h105.931
		c4.873,0,8.828,3.955,8.828,8.828C194.207,190.252,190.252,194.207,185.379,194.207"/>
	<path style="fill:#7383BF;" d="M114.759,229.517H44.138c-4.873,0-8.828-3.955-8.828-8.828c0-4.873,3.955-8.828,8.828-8.828h70.621
		c4.873,0,8.828,3.955,8.828,8.828C123.586,225.562,119.631,229.517,114.759,229.517"/>
	<path style="fill:#ED7161;" d="M79.448,264.828h-35.31c-4.873,0-8.828-3.955-8.828-8.828s3.955-8.828,8.828-8.828h35.31
		c4.873,0,8.828,3.955,8.828,8.828S84.321,264.828,79.448,264.828"/>
	<path style="fill:#42B05C;" d="M150.069,300.138H79.448c-4.873,0-8.828-3.955-8.828-8.828c0-4.873,3.955-8.828,8.828-8.828h70.621
		c4.873,0,8.828,3.955,8.828,8.828C158.897,296.183,154.942,300.138,150.069,300.138"/>
	<path style="fill:#ECBA16;" d="M185.379,335.448h-70.621c-4.873,0-8.828-3.955-8.828-8.828s3.955-8.828,8.828-8.828h70.621
		c4.873,0,8.828,3.955,8.828,8.828S190.252,335.448,185.379,335.448"/>
	<path style="fill:#7383BF;" d="M344.276,335.448h-44.138c-4.873,0-8.828-3.955-8.828-8.828s3.955-8.828,8.828-8.828h44.138
		c4.873,0,8.828,3.955,8.828,8.828S349.149,335.448,344.276,335.448"/>
	<path style="fill:#ED7161;" d="M132.414,406.069H61.793c-4.873,0-8.828-3.955-8.828-8.828c0-4.873,3.955-8.828,8.828-8.828h70.621
		c4.873,0,8.828,3.955,8.828,8.828C141.241,402.114,137.287,406.069,132.414,406.069"/>
	<path style="fill:#42B05C;" d="M79.448,370.759h-35.31c-4.873,0-8.828-3.955-8.828-8.828s3.955-8.828,8.828-8.828h35.31
		c4.873,0,8.828,3.955,8.828,8.828S84.321,370.759,79.448,370.759"/>
	<path style="fill:#ED7161;" d="M370.759,123.586h-70.621c-4.873,0-8.828-3.955-8.828-8.828s3.955-8.828,8.828-8.828h70.621
		c4.873,0,8.828,3.955,8.828,8.828S375.631,123.586,370.759,123.586"/>
	<path style="fill:#7383BF;" d="M432.552,158.897h-97.103c-4.873,0-8.828-3.955-8.828-8.828c0-4.873,3.955-8.828,8.828-8.828h97.103
		c4.873,0,8.828,3.955,8.828,8.828C441.379,154.942,437.425,158.897,432.552,158.897"/>
	<path style="fill:#ECBA16;" d="M450.207,194.207H335.448c-4.873,0-8.828-3.955-8.828-8.828c0-4.873,3.955-8.828,8.828-8.828
		h114.759c4.873,0,8.828,3.955,8.828,8.828C459.034,190.252,455.08,194.207,450.207,194.207"/>
	<path style="fill:#42B05C;" d="M423.724,229.517h-52.966c-4.873,0-8.828-3.955-8.828-8.828c0-4.873,3.955-8.828,8.828-8.828h52.966
		c4.873,0,8.828,3.955,8.828,8.828C432.552,225.562,428.597,229.517,423.724,229.517"/>
	<path style="fill:#ED7161;" d="M379.586,264.828h-17.655c-4.873,0-8.828-3.955-8.828-8.828s3.955-8.828,8.828-8.828h17.655
		c4.873,0,8.828,3.955,8.828,8.828S384.459,264.828,379.586,264.828"/>
	<g>
		<path style="fill:#ECBA16;" d="M432.552,300.138h-88.276c-4.873,0-8.828-3.955-8.828-8.828c0-4.873,3.955-8.828,8.828-8.828
			h88.276c4.873,0,8.828,3.955,8.828,8.828C441.379,296.183,437.425,300.138,432.552,300.138"/>
		<path style="fill:#ECBA16;" d="M370.759,406.069h-70.621c-4.873,0-8.828-3.955-8.828-8.828c0-4.873,3.955-8.828,8.828-8.828
			h70.621c4.873,0,8.828,3.955,8.828,8.828C379.586,402.114,375.631,406.069,370.759,406.069"/>
	</g>
	<path style="fill:#42B05C;" d="M388.414,370.759h-61.793c-4.873,0-8.828-3.955-8.828-8.828s3.955-8.828,8.828-8.828h61.793
		c4.873,0,8.828,3.955,8.828,8.828S393.287,370.759,388.414,370.759"/>
</g>
</svg>